<?xml version="1.0" encoding="UTF-8" standalone="no"?>
<svg width="99px" height="28px" viewBox="0 0 99 28" version="1.1" xmlns="http://www.w3.org/2000/svg" xmlns:xlink="http://www.w3.org/1999/xlink" xmlns:sketch="http://www.bohemiancoding.com/sketch/ns">
    <!-- Generator: Sketch 3.2.2 (9983) - http://www.bohemiancoding.com/sketch -->
    <title>logo-small</title>
    <desc>Created with Sketch.</desc>
    <defs>
        <linearGradient x1="46.8063486%" y1="0%" x2="37.9340278%" y2="171.044922%" id="linearGradient-1">
            <stop stop-color="#FFFFFF" stop-opacity="0.873443161" offset="0%"></stop>
            <stop stop-color="#FFFFFF" stop-opacity="0.527740036" offset="100%"></stop>
        </linearGradient>
    </defs>
    <g id="Page-1" stroke="none" stroke-width="1" fill="none" fill-rule="evenodd" sketch:type="MSPage">
        <g id="Desktop-HD" sketch:type="MSArtboardGroup" transform="translate(-239.000000, -93.000000)" fill="url(#linearGradient-1)" opacity="0.9">
            <g id="Hero" sketch:type="MSLayerGroup">
                <g id="Logo" transform="translate(239.000000, 93.000000)" sketch:type="MSShapeGroup">
                    <path d="M30.0535714,21 L35.3571429,0 L30.4071429,0 L10.7839286,0 L7.07142857,0 L0,28 L7.07142857,28 L8.83928571,21 L8.83928571,21 L21.2142857,21 L30.0535714,21 L30.0535714,21 L30.0535714,21 Z M10.6071429,14 L12.375,7 L26.5178571,7 L24.75,14 L10.6071429,14 Z M42.4285714,14 L44.1964286,7 L58.3392857,7 L56.5714286,14 L42.4285714,14 Z M40.6607143,21 L38.8928571,28 L31.8214286,28 L38.8928571,0 L42.6053571,0 L62.2285714,0 L67.1785714,0 L60.1071429,28 L53.0357143,28 L54.8035714,21 L40.6607143,21 Z M86.625,7 L65.4107143,21 L76.0178571,21 L97.2321429,7 L86.625,7 Z M70.7142857,0 L68.9464286,7 L97.2321429,7 L99,0 L70.7142857,0 L70.7142857,0 Z M65.4107143,21 L63.6428571,28 L91.9285714,28 L93.6964286,21 L65.4107143,21 L65.4107143,21 Z" id="Rectangle-76"></path>
                </g>
            </g>
        </g>
    </g>
</svg>